<?xml version="1.0" encoding="UTF-8" standalone="no"?>
<svg
   xmlns:dc="http://purl.org/dc/elements/1.1/"
   xmlns:cc="http://creativecommons.org/ns#"
   xmlns:rdf="http://www.w3.org/1999/02/22-rdf-syntax-ns#"
   xmlns:svg="http://www.w3.org/2000/svg"
   xmlns="http://www.w3.org/2000/svg"
   xmlns:sodipodi="http://sodipodi.sourceforge.net/DTD/sodipodi-0.dtd"
   xmlns:inkscape="http://www.inkscape.org/namespaces/inkscape"
   version="1.1"
   viewBox="0 0 793.70079 793.70079"
   stroke-miterlimit="10"
   id="svg101"
   sodipodi:docname="min_2.svg"
   inkscape:version="0.92.3 (2405546, 2018-03-11)"
   width="21cm"
   height="21cm"
   style="fill:none;stroke:none;stroke-linecap:square;stroke-miterlimit:10"
   inkscape:export-filename="/home/siddarthkaki/drive/CDUS/agnc_logo/minimalist/min_2_light.png"
   inkscape:export-xdpi="241.905"
   inkscape:export-ydpi="241.905"
   enable-background="new">
  <metadata
     id="metadata107">
    <rdf:RDF>
      <cc:Work
         rdf:about="">
        <dc:format>image/svg+xml</dc:format>
        <dc:type
           rdf:resource="http://purl.org/dc/dcmitype/StillImage" />
        <dc:title></dc:title>
      </cc:Work>
    </rdf:RDF>
  </metadata>
  <defs
     id="defs105">
    <clipPath
       id="p.0-3">
      <path
         style="clip-rule:nonzero"
         inkscape:connector-curvature="0"
         d="M 0,0 H 793.7008 V 793.7008 H 0 Z"
         id="path2-6" />
    </clipPath>
  </defs>
  <sodipodi:namedview
     pagecolor="#ffffff"
     bordercolor="#666666"
     borderopacity="1"
     objecttolerance="10"
     gridtolerance="10"
     guidetolerance="10"
     inkscape:pageopacity="0"
     inkscape:pageshadow="2"
     inkscape:window-width="2560"
     inkscape:window-height="1410"
     id="namedview103"
     showgrid="false"
     inkscape:pagecheckerboard="true"
     inkscape:zoom="1.52"
     inkscape:cx="223.81831"
     inkscape:cy="430.68266"
     inkscape:window-x="1920"
     inkscape:window-y="30"
     inkscape:window-maximized="1"
     inkscape:current-layer="layer3"
     inkscape:document-units="cm"
     units="cm"
     showguides="true"
     inkscape:guide-bbox="true">
    <sodipodi:guide
       position="70.341393,75.60455"
       orientation="0,1"
       id="guide1337"
       inkscape:locked="false" />
    <sodipodi:guide
       position="71.446077,166.25817"
       orientation="0,1"
       id="guide1496"
       inkscape:locked="false" />
    <sodipodi:guide
       position="280.98591,491.54929"
       orientation="0,1"
       id="guide1070"
       inkscape:locked="false" />
  </sodipodi:namedview>
  <clipPath
     id="p.0">
    <path
       d="M 0,0 H 793.7008 V 793.7008 H 0 Z"
       id="path2"
       inkscape:connector-curvature="0"
       style="clip-rule:nonzero" />
  </clipPath>
  <g
     inkscape:groupmode="layer"
     id="layer3"
     inkscape:label="A 1"
     style="display:none;" />
  <g
     inkscape:groupmode="layer"
     id="layer2"
     inkscape:label="GNC"
     style="display:none">
    <g
       style="display:inline;fill:#000000;fill-opacity:1"
       id="g964"
       transform="translate(-433.84269,424.57925)">
      <rect
         y="142.34987"
         x="509.43338"
         height="37.795288"
         width="188.97638"
         id="rect918"
         style="opacity:1;vector-effect:none;fill:#000000;fill-opacity:1;stroke:none;stroke-width:3.77952766;stroke-linecap:butt;stroke-linejoin:miter;stroke-miterlimit:4;stroke-dasharray:none;stroke-dashoffset:0;stroke-opacity:1;paint-order:fill markers stroke" />
      <rect
         y="142.34987"
         x="509.43338"
         height="151.16711"
         width="37.70945"
         id="rect920"
         style="opacity:1;vector-effect:none;fill:#000000;fill-opacity:1;stroke:none;stroke-width:3.77952766;stroke-linecap:butt;stroke-linejoin:miter;stroke-miterlimit:4;stroke-dasharray:none;stroke-dashoffset:0;stroke-opacity:1;paint-order:fill markers stroke" />
      <rect
         y="293.53098"
         x="509.43338"
         height="37.795261"
         width="188.97638"
         id="rect922"
         style="opacity:1;vector-effect:none;fill:#000000;fill-opacity:1;stroke:none;stroke-width:3.77952766;stroke-linecap:butt;stroke-linejoin:miter;stroke-miterlimit:4;stroke-dasharray:none;stroke-dashoffset:0;stroke-opacity:1;paint-order:fill markers stroke" />
      <rect
         y="217.94044"
         x="660.61444"
         height="113.38579"
         width="37.795273"
         id="rect924"
         style="opacity:1;vector-effect:none;fill:#000000;fill-opacity:1;stroke:none;stroke-width:3.77952766;stroke-linecap:butt;stroke-linejoin:miter;stroke-miterlimit:4;stroke-dasharray:none;stroke-dashoffset:0;stroke-opacity:1;paint-order:fill markers stroke" />
      <rect
         y="217.94044"
         x="585.02393"
         height="37.795212"
         width="113.38583"
         id="rect926"
         style="opacity:1;vector-effect:none;fill:#000000;fill-opacity:1;stroke:none;stroke-width:3.77952766;stroke-linecap:butt;stroke-linejoin:miter;stroke-miterlimit:4;stroke-dasharray:none;stroke-dashoffset:0;stroke-opacity:1;paint-order:fill markers stroke" />
    </g>
    <g
       transform="translate(1.2250781e-4,-1.8183594e-5)"
       style="display:inline;fill:#000000;fill-opacity:1"
       id="g983">
      <rect
         y="566.92914"
         x="302.36221"
         height="188.97635"
         width="37.795269"
         id="rect966"
         style="opacity:1;vector-effect:none;fill:#000000;fill-opacity:1;stroke:none;stroke-width:3.77952766;stroke-linecap:butt;stroke-linejoin:miter;stroke-miterlimit:4;stroke-dasharray:none;stroke-dashoffset:0;stroke-opacity:1;paint-order:fill markers stroke" />
      <rect
         y="566.92914"
         x="453.5433"
         height="188.97635"
         width="37.795288"
         id="rect968"
         style="opacity:1;vector-effect:none;fill:#000000;fill-opacity:1;stroke:none;stroke-width:3.77952766;stroke-linecap:butt;stroke-linejoin:miter;stroke-miterlimit:4;stroke-dasharray:none;stroke-dashoffset:0;stroke-opacity:1;paint-order:fill markers stroke" />
      <rect
         y="566.92914"
         x="302.36221"
         height="37.795261"
         width="188.97639"
         id="rect970"
         style="opacity:1;vector-effect:none;fill:#000000;fill-opacity:1;stroke:none;stroke-width:3.77952766;stroke-linecap:butt;stroke-linejoin:miter;stroke-miterlimit:4;stroke-dasharray:none;stroke-dashoffset:0;stroke-opacity:1;paint-order:fill markers stroke" />
    </g>
    <g
       transform="translate(1.2250781e-4,-1.8183594e-5)"
       style="display:inline;fill:#000000;fill-opacity:1"
       id="g988">
      <rect
         y="718.11023"
         x="529.13385"
         height="37.795288"
         width="188.97638"
         id="rect972"
         style="opacity:1;vector-effect:none;fill:#000000;fill-opacity:1;stroke:none;stroke-width:3.77952766;stroke-linecap:butt;stroke-linejoin:miter;stroke-miterlimit:4;stroke-dasharray:none;stroke-dashoffset:0;stroke-opacity:1;paint-order:fill markers stroke" />
      <rect
         y="566.92914"
         x="529.13385"
         height="37.795288"
         width="188.97638"
         id="rect976"
         style="opacity:1;vector-effect:none;fill:#000000;fill-opacity:1;stroke:none;stroke-width:3.77952766;stroke-linecap:butt;stroke-linejoin:miter;stroke-miterlimit:4;stroke-dasharray:none;stroke-dashoffset:0;stroke-opacity:1;paint-order:fill markers stroke" />
      <rect
         y="566.92914"
         x="529.13385"
         height="188.97635"
         width="37.795292"
         id="rect978"
         style="opacity:1;vector-effect:none;fill:#000000;fill-opacity:1;stroke:none;stroke-width:3.77952766;stroke-linecap:butt;stroke-linejoin:miter;stroke-miterlimit:4;stroke-dasharray:none;stroke-dashoffset:0;stroke-opacity:1;paint-order:fill markers stroke" />
    </g>
  </g>
  <g
     style="display:none"
     inkscape:label="GNC_clipped"
     id="g1368"
     inkscape:groupmode="layer">
    <g
       transform="translate(-433.84269,424.57925)"
       id="g1350"
       style="display:inline;fill:#000000;fill-opacity:1">
      <rect
         style="opacity:1;vector-effect:none;fill:#000000;fill-opacity:1;stroke:none;stroke-width:3.77952766;stroke-linecap:butt;stroke-linejoin:miter;stroke-miterlimit:4;stroke-dasharray:none;stroke-dashoffset:0;stroke-opacity:1;paint-order:fill markers stroke"
         id="rect1340"
         width="188.97638"
         height="37.795288"
         x="509.43338"
         y="142.34987" />
      <rect
         style="opacity:1;vector-effect:none;fill:#000000;fill-opacity:1;stroke:none;stroke-width:3.77952766;stroke-linecap:butt;stroke-linejoin:miter;stroke-miterlimit:4;stroke-dasharray:none;stroke-dashoffset:0;stroke-opacity:1;paint-order:fill markers stroke"
         id="rect1342"
         width="37.70945"
         height="151.16711"
         x="509.43338"
         y="142.34987" />
      <path
         style="opacity:1;vector-effect:none;fill:#000000;fill-opacity:1;stroke:none;stroke-width:3.77952766;stroke-linecap:butt;stroke-linejoin:miter;stroke-miterlimit:4;stroke-dasharray:none;stroke-dashoffset:0;stroke-opacity:1;paint-order:fill markers stroke"
         d="m 75.603516,718.10938 37.783204,37.78124 -0.0156,0.0156 h 151.19532 v -37.79687 z"
         transform="translate(433.84269,-424.57925)"
         id="rect1344"
         inkscape:connector-curvature="0" />
      <rect
         style="opacity:1;vector-effect:none;fill:#000000;fill-opacity:1;stroke:none;stroke-width:3.77952766;stroke-linecap:butt;stroke-linejoin:miter;stroke-miterlimit:4;stroke-dasharray:none;stroke-dashoffset:0;stroke-opacity:1;paint-order:fill markers stroke"
         id="rect1346"
         width="37.795273"
         height="113.38579"
         x="660.61444"
         y="217.94044" />
      <rect
         style="opacity:1;vector-effect:none;fill:#000000;fill-opacity:1;stroke:none;stroke-width:3.77952766;stroke-linecap:butt;stroke-linejoin:miter;stroke-miterlimit:4;stroke-dasharray:none;stroke-dashoffset:0;stroke-opacity:1;paint-order:fill markers stroke"
         id="rect1348"
         width="113.38583"
         height="37.795212"
         x="585.02393"
         y="217.94044" />
    </g>
    <g
       id="g1358"
       style="display:inline;fill:#000000;fill-opacity:1"
       transform="translate(1.2250781e-4,-1.8183594e-5)">
      <rect
         style="opacity:1;vector-effect:none;fill:#000000;fill-opacity:1;stroke:none;stroke-width:3.77952766;stroke-linecap:butt;stroke-linejoin:miter;stroke-miterlimit:4;stroke-dasharray:none;stroke-dashoffset:0;stroke-opacity:1;paint-order:fill markers stroke"
         id="rect1352"
         width="37.795269"
         height="188.97635"
         x="302.36221"
         y="566.92914" />
      <rect
         style="opacity:1;vector-effect:none;fill:#000000;fill-opacity:1;stroke:none;stroke-width:3.77952766;stroke-linecap:butt;stroke-linejoin:miter;stroke-miterlimit:4;stroke-dasharray:none;stroke-dashoffset:0;stroke-opacity:1;paint-order:fill markers stroke"
         id="rect1354"
         width="37.795288"
         height="188.97635"
         x="453.5433"
         y="566.92914" />
      <rect
         style="opacity:1;vector-effect:none;fill:#000000;fill-opacity:1;stroke:none;stroke-width:3.77952766;stroke-linecap:butt;stroke-linejoin:miter;stroke-miterlimit:4;stroke-dasharray:none;stroke-dashoffset:0;stroke-opacity:1;paint-order:fill markers stroke"
         id="rect1356"
         width="188.97639"
         height="37.795261"
         x="302.36221"
         y="566.92914" />
    </g>
    <g
       id="g1366"
       style="display:inline;fill:#000000;fill-opacity:1"
       transform="translate(1.2250781e-4,-1.8183594e-5)">
      <path
         style="opacity:1;vector-effect:none;fill:#000000;fill-opacity:1;stroke:none;stroke-width:3.77952766;stroke-linecap:butt;stroke-linejoin:miter;stroke-miterlimit:4;stroke-dasharray:none;stroke-dashoffset:0;stroke-opacity:1;paint-order:fill markers stroke"
         d="m 529.13477,718.10938 v 37.79687 h 151.17968 l 37.79688,-37.79687 z"
         transform="translate(-1.2250781e-4,1.8183594e-5)"
         id="rect1360"
         inkscape:connector-curvature="0" />
      <rect
         style="opacity:1;vector-effect:none;fill:#000000;fill-opacity:1;stroke:none;stroke-width:3.77952766;stroke-linecap:butt;stroke-linejoin:miter;stroke-miterlimit:4;stroke-dasharray:none;stroke-dashoffset:0;stroke-opacity:1;paint-order:fill markers stroke"
         id="rect1362"
         width="188.97638"
         height="37.795288"
         x="529.13385"
         y="566.92914" />
      <rect
         style="opacity:1;vector-effect:none;fill:#000000;fill-opacity:1;stroke:none;stroke-width:3.77952766;stroke-linecap:butt;stroke-linejoin:miter;stroke-miterlimit:4;stroke-dasharray:none;stroke-dashoffset:0;stroke-opacity:1;paint-order:fill markers stroke"
         id="rect1364"
         width="37.795292"
         height="188.97635"
         x="529.13385"
         y="566.92914" />
    </g>
  </g>
  <g
     inkscape:groupmode="layer"
     id="g1430"
     inkscape:label="GNC_clipped_grouped"
     style="display:inline"
     sodipodi:insensitive="true">
    <g
       id="g1229"
       style="display:inline;fill:#000000;fill-opacity:1;stroke:none;stroke-linecap:square;stroke-miterlimit:10"
       transform="translate(-0.01222913,-94.488564)">
      <path
         id="path95"
         d="M 718.13454,529.158 415.74816,226.77165 h -37.77109 l 340.15747,340.15747 z"
         inkscape:connector-curvature="0"
         style="display:inline;fill:#000000;fill-opacity:1;fill-rule:evenodd" />
      <path
         id="path93"
         d="M 75.5907,529.158 377.97707,226.77165 h 37.77109 L 75.59069,566.92912 Z"
         inkscape:connector-curvature="0"
         style="display:inline;fill:#000000;fill-opacity:1;fill-rule:evenodd" />
    </g>
    <g
       id="g1446"
       transform="translate(-6.2419472e-4,-94.488564)"
       style="fill:#000000;fill-opacity:1">
      <g
         transform="translate(-433.84269,424.57925)"
         id="g1412"
         style="display:inline;fill:#000000;fill-opacity:1">
        <rect
           style="opacity:1;vector-effect:none;fill:#000000;fill-opacity:1;stroke:none;stroke-width:3.77952766;stroke-linecap:butt;stroke-linejoin:miter;stroke-miterlimit:4;stroke-dasharray:none;stroke-dashoffset:0;stroke-opacity:1;paint-order:fill markers stroke"
           id="rect1402"
           width="188.97638"
           height="37.795288"
           x="509.43338"
           y="142.34987" />
        <path
           style="opacity:1;vector-effect:none;fill:#000000;fill-opacity:1;stroke:none;stroke-width:4.23064184;stroke-linecap:butt;stroke-linejoin:miter;stroke-miterlimit:4;stroke-dasharray:none;stroke-dashoffset:0;stroke-opacity:1;paint-order:fill markers stroke"
           d="m 75.578125,472.42578 v 151.20508 l 0.0098,-0.01 37.781245,37.78125 h 0.004 V 472.42578 Z"
           transform="translate(433.84331,-330.09069)"
           id="rect1404"
           inkscape:connector-curvature="0" />
        <path
           style="opacity:1;vector-effect:none;fill:#000000;fill-opacity:1;stroke:none;stroke-width:3.77952766;stroke-linecap:butt;stroke-linejoin:miter;stroke-miterlimit:4;stroke-dasharray:none;stroke-dashoffset:0;stroke-opacity:1;paint-order:fill markers stroke"
           d="m 509.43386,293.52978 37.78321,37.78124 -0.0156,0.0156 h 151.19532 v -37.79687 z"
           id="path1406"
           inkscape:connector-curvature="0" />
        <rect
           style="opacity:1;vector-effect:none;fill:#000000;fill-opacity:1;stroke:none;stroke-width:3.77952766;stroke-linecap:butt;stroke-linejoin:miter;stroke-miterlimit:4;stroke-dasharray:none;stroke-dashoffset:0;stroke-opacity:1;paint-order:fill markers stroke"
           id="rect1408"
           width="37.795273"
           height="113.38579"
           x="660.61444"
           y="217.94044" />
        <rect
           style="opacity:1;vector-effect:none;fill:#000000;fill-opacity:1;stroke:none;stroke-width:3.77952766;stroke-linecap:butt;stroke-linejoin:miter;stroke-miterlimit:4;stroke-dasharray:none;stroke-dashoffset:0;stroke-opacity:1;paint-order:fill markers stroke"
           id="rect1410"
           width="113.38583"
           height="37.795212"
           x="585.02393"
           y="217.94044" />
      </g>
      <g
         id="g1420"
         style="display:inline;fill:#000000;fill-opacity:1"
         transform="translate(1.2250781e-4,-1.8183594e-5)">
        <rect
           style="opacity:1;vector-effect:none;fill:#000000;fill-opacity:1;stroke:none;stroke-width:3.77952766;stroke-linecap:butt;stroke-linejoin:miter;stroke-miterlimit:4;stroke-dasharray:none;stroke-dashoffset:0;stroke-opacity:1;paint-order:fill markers stroke"
           id="rect1414"
           width="37.795269"
           height="188.97635"
           x="302.36221"
           y="566.92914" />
        <rect
           style="opacity:1;vector-effect:none;fill:#000000;fill-opacity:1;stroke:none;stroke-width:3.77952766;stroke-linecap:butt;stroke-linejoin:miter;stroke-miterlimit:4;stroke-dasharray:none;stroke-dashoffset:0;stroke-opacity:1;paint-order:fill markers stroke"
           id="rect1416"
           width="37.795288"
           height="188.97635"
           x="453.5433"
           y="566.92914" />
        <rect
           style="opacity:1;vector-effect:none;fill:#000000;fill-opacity:1;stroke:none;stroke-width:3.77952766;stroke-linecap:butt;stroke-linejoin:miter;stroke-miterlimit:4;stroke-dasharray:none;stroke-dashoffset:0;stroke-opacity:1;paint-order:fill markers stroke"
           id="rect1418"
           width="188.97639"
           height="37.795261"
           x="302.36221"
           y="566.92914" />
      </g>
      <g
         id="g1428"
         style="display:inline;fill:#000000;fill-opacity:1"
         transform="translate(1.2250781e-4,-1.8183594e-5)">
        <path
           style="opacity:1;vector-effect:none;fill:#000000;fill-opacity:1;stroke:none;stroke-width:3.77952766;stroke-linecap:butt;stroke-linejoin:miter;stroke-miterlimit:4;stroke-dasharray:none;stroke-dashoffset:0;stroke-opacity:1;paint-order:fill markers stroke"
           d="m 529.13477,718.10938 v 37.79687 h 151.17968 l 37.79688,-37.79687 z"
           transform="translate(-1.2250781e-4,1.8183594e-5)"
           id="path1422"
           inkscape:connector-curvature="0" />
        <rect
           style="opacity:1;vector-effect:none;fill:#000000;fill-opacity:1;stroke:none;stroke-width:3.77952766;stroke-linecap:butt;stroke-linejoin:miter;stroke-miterlimit:4;stroke-dasharray:none;stroke-dashoffset:0;stroke-opacity:1;paint-order:fill markers stroke"
           id="rect1424"
           width="188.97638"
           height="37.795288"
           x="529.13385"
           y="566.92914" />
        <rect
           style="opacity:1;vector-effect:none;fill:#000000;fill-opacity:1;stroke:none;stroke-width:3.77952766;stroke-linecap:butt;stroke-linejoin:miter;stroke-miterlimit:4;stroke-dasharray:none;stroke-dashoffset:0;stroke-opacity:1;paint-order:fill markers stroke"
           id="rect1426"
           width="37.795292"
           height="188.97635"
           x="529.13385"
           y="566.92914" />
      </g>
    </g>
  </g>
  <g
     inkscape:groupmode="layer"
     id="layer4"
     inkscape:label="quadcopter_dark"
     style="display:none">
    <g
       id="g1245"
       transform="matrix(2.2473033,0,0,2.2473033,839.55661,-547.27238)"
       style="fill:#ffffff;fill-opacity:1">
      <g
         id="g1227"
         class="st0"
         style="display:none;fill:#ffffff;fill-opacity:1">
        <path
           id="path1225"
           d="m -152.1,391.1 -22.9,8.6 v -7.9 c 0,-4.3 -3.5,-7.9 -7.9,-7.9 h -51.2 c -4.3,0 -7.9,3.5 -7.9,7.9 v 34 c 0,4.3 3.5,7.9 7.9,7.9 h 51.2 c 4.3,0 7.9,-3.5 7.9,-7.9 v -7.6 l 22.9,8.4 c 0,0 0,-35.5 0,-35.5 z m -26,34.8 c 0,2.6 -2.1,4.7 -4.7,4.7 H -234 c -2.6,0 -4.7,-2.1 -4.7,-4.7 v -34 c 0,-2.6 2.1,-4.7 4.7,-4.7 h 51.2 c 2.6,0 4.7,2.1 4.7,4.7 z m 22.9,-3.8 -19.6,-7.1 v -11.9 l 19.6,-7.4 z"
           class="st1"
           inkscape:connector-curvature="0"
           style="display:inline;fill:#ffffff;fill-opacity:1" />
      </g>
      <g
         id="g1231"
         style="fill:#ffffff;fill-opacity:1">
        <path
           id="path1229"
           d="m -159.8,385.8 c -1.8,-1.5 -3.5,-2.7 -4.8,-3.3 0.3,-0.6 0.4,-1.3 0.4,-2 0,-2.6 -2.1,-4.7 -4.7,-4.7 -0.8,0 -1.5,0.2 -2.2,0.5 -0.8,-1.2 -2.2,-2.8 -4,-4.3 -3.2,-2.7 -6.3,-4.3 -7,-3.5 -0.7,0.8 1.4,3.6 4.6,6.3 1.7,1.4 3.4,2.6 4.6,3.2 -0.4,0.7 -0.7,1.6 -0.7,2.5 0,0.6 0.1,1.2 0.3,1.7 -7,7.5 -14.3,11.8 -17.7,13.6 -2,-1 -4.3,-1.6 -6.6,-1.6 -2,0 -3.8,0.4 -5.6,1.1 -6.5,-2.9 -14.3,-10 -17.9,-13.5 0.1,-0.4 0.2,-0.8 0.2,-1.3 0,-0.8 -0.2,-1.5 -0.5,-2.1 1.3,-0.7 2.9,-2 4.6,-3.6 3,-2.9 4.8,-5.9 4.1,-6.6 -0.7,-0.7 -3.7,1.1 -6.7,4 -1.6,1.6 -2.9,3.2 -3.6,4.4 -0.7,-0.5 -1.6,-0.8 -2.6,-0.8 -2.6,0 -4.7,2.1 -4.7,4.7 0,0.8 0.2,1.5 0.5,2.1 -1.3,0.7 -2.9,2 -4.6,3.6 -3,2.9 -4.8,5.9 -4.1,6.6 0.7,0.7 3.7,-1.1 6.7,-4 1.6,-1.6 2.9,-3.2 3.6,-4.4 0.7,0.5 1.6,0.8 2.6,0.8 0.5,0 1.1,-0.1 1.6,-0.3 7.4,6.5 11.7,13.3 13.6,16.7 -1.2,2.1 -1.9,4.6 -1.9,7.2 0,2.1 0.5,4.2 1.3,6 -2.8,6.4 -9.7,14 -13.2,17.6 -0.4,-0.1 -0.9,-0.2 -1.4,-0.2 -0.9,0 -1.7,0.2 -2.3,0.6 -0.7,-1.3 -2.2,-2.9 -4.1,-4.6 -3.1,-2.8 -6.2,-4.4 -6.9,-3.7 -0.7,0.8 1.3,3.6 4.5,6.4 1.8,1.6 3.6,2.8 4.9,3.4 -0.4,0.7 -0.7,1.6 -0.7,2.5 0,2.6 2.1,4.7 4.7,4.7 0.9,0 1.7,-0.2 2.4,-0.7 0.8,1.2 2.1,2.6 3.7,4.1 3.1,2.8 6.2,4.4 6.9,3.7 0.7,-0.8 -1.3,-3.6 -4.5,-6.4 -1.6,-1.4 -3.2,-2.5 -4.4,-3.2 0.3,-0.6 0.5,-1.4 0.5,-2.1 0,-0.5 -0.1,-1 -0.2,-1.5 6.6,-7.4 13.4,-11.8 16.7,-13.6 2,1.1 4.3,1.7 6.8,1.7 2.5,0 4.8,-0.6 6.8,-1.7 6.4,3.3 13.8,10.5 17.1,13.8 -0.1,0.4 -0.2,0.8 -0.2,1.3 0,0.8 0.2,1.6 0.6,2.2 -1.2,0.7 -2.8,2 -4.3,3.6 -2.9,3 -4.7,6 -4,6.7 0.7,0.7 3.7,-1.2 6.6,-4.2 1.5,-1.6 2.7,-3.1 3.4,-4.4 0.7,0.4 1.5,0.7 2.4,0.7 2.6,0 4.7,-2.1 4.7,-4.7 0,-0.8 -0.2,-1.5 -0.5,-2.2 1.3,-0.7 3,-2.1 4.7,-3.8 2.9,-3 4.7,-6 4,-6.7 -0.7,-0.7 -3.7,1.2 -6.6,4.2 -1.6,1.7 -2.9,3.4 -3.6,4.6 -0.7,-0.5 -1.6,-0.8 -2.6,-0.8 -0.5,0 -1,0.1 -1.5,0.3 -7.6,-7 -11.9,-14.3 -13.5,-17.6 0.8,-1.9 1.3,-3.9 1.3,-6.1 0,-2.3 -0.5,-4.4 -1.4,-6.3 3.4,-6.7 11.3,-14.5 14.4,-17.4 0.3,0.1 0.7,0.1 1.1,0.1 1,0 1.9,-0.3 2.7,-0.9 0.8,1.2 2.2,2.7 4,4.2 3.2,2.7 6.3,4.3 7,3.5 0.4,-0.5 -1.6,-3.3 -4.8,-6.1 z m -65.6,-4.2 c -0.6,0 -1,-0.5 -1,-1 0,-0.6 0.5,-1 1,-1 0.6,0 1.1,0.5 1.1,1 -0.1,0.5 -0.5,1 -1.1,1 z m 0,56.4 c -0.6,0 -1,-0.5 -1,-1 0,-0.6 0.5,-1.1 1,-1.1 0.6,0 1.1,0.5 1.1,1.1 0,0.5 -0.5,1 -1.1,1 z m 56.2,-2 c 0.6,0 1.1,0.5 1.1,1 0,0.6 -0.5,1.1 -1.1,1.1 -0.6,0 -1,-0.5 -1,-1.1 -0.1,-0.6 0.4,-1 1,-1 z m 0.4,-54.4 c -0.6,0 -1.1,-0.5 -1.1,-1 0,-0.6 0.5,-1.1 1.1,-1.1 0.6,0 1,0.5 1,1.1 0,0.5 -0.5,1 -1,1 z"
           inkscape:connector-curvature="0"
           style="fill:#ffffff;fill-opacity:1" />
      </g>
    </g>
  </g>
  <g
     inkscape:label="quadcopter_light"
     id="g1259"
     inkscape:groupmode="layer"
     style="display:none">
    <g
       style="fill:#000000;fill-opacity:1"
       transform="matrix(2.838085,0,0,2.838085,955.93731,-812.35224)"
       id="g1257">
      <g
         style="display:none;fill:#000000;fill-opacity:1"
         class="st0"
         id="g1251">
        <path
           style="display:inline;fill:#000000;fill-opacity:1"
           inkscape:connector-curvature="0"
           class="st1"
           d="m -152.1,391.1 -22.9,8.6 v -7.9 c 0,-4.3 -3.5,-7.9 -7.9,-7.9 h -51.2 c -4.3,0 -7.9,3.5 -7.9,7.9 v 34 c 0,4.3 3.5,7.9 7.9,7.9 h 51.2 c 4.3,0 7.9,-3.5 7.9,-7.9 v -7.6 l 22.9,8.4 c 0,0 0,-35.5 0,-35.5 z m -26,34.8 c 0,2.6 -2.1,4.7 -4.7,4.7 H -234 c -2.6,0 -4.7,-2.1 -4.7,-4.7 v -34 c 0,-2.6 2.1,-4.7 4.7,-4.7 h 51.2 c 2.6,0 4.7,2.1 4.7,4.7 z m 22.9,-3.8 -19.6,-7.1 v -11.9 l 19.6,-7.4 z"
           id="path1249" />
      </g>
      <g
         style="fill:#000000;fill-opacity:1"
         id="g1255">
        <path
           style="fill:#000000;fill-opacity:1;stroke-width:0.75101346"
           inkscape:connector-curvature="0"
           d="m -159.8,383.33293 c -1.8,-0.84603 -3.5,-1.52285 -4.8,-1.86127 0.3,-0.33841 0.4,-0.73322 0.4,-1.12804 0,-1.46645 -2.1,-2.6509 -4.7,-2.6509 -0.8,0 -1.5,0.11281 -2.2,0.28201 -0.8,-0.67682 -2.2,-1.57926 -4,-2.42529 -3.2,-1.52286 -6.3,-2.42529 -7,-1.97407 -0.7,0.45121 1.4,2.03047 4.6,3.55333 1.7,0.78963 3.4,1.46645 4.6,1.80487 -0.4,0.39481 -0.7,0.90243 -0.7,1.41005 0,0.33841 0.1,0.67683 0.3,0.95884 -7,4.23016 -14.3,6.65545 -17.7,7.67068 -2,-0.56402 -4.3,-0.90243 -6.6,-0.90243 -2,0 -3.8,0.22561 -5.6,0.62042 -6.5,-1.63566 -14.3,-5.64021 -17.9,-7.61428 0.1,-0.22561 0.2,-0.45122 0.2,-0.73323 0,-0.45122 -0.2,-0.84603 -0.5,-1.18444 1.3,-0.39482 2.9,-1.12805 4.6,-2.03048 3,-1.63566 4.8,-3.32773 4.1,-3.72254 -0.7,-0.39481 -3.7,0.62042 -6.7,2.25608 -1.6,0.90244 -2.9,1.80487 -3.6,2.4817 -0.7,-0.28201 -1.6,-0.45122 -2.6,-0.45122 -2.6,0 -4.7,1.18445 -4.7,2.6509 0,0.45122 0.2,0.84603 0.5,1.18445 -1.3,0.39481 -2.9,1.12804 -4.6,2.03047 -3,1.63566 -4.8,3.32773 -4.1,3.72254 0.7,0.39482 3.7,-0.62042 6.7,-2.25608 1.6,-0.90244 2.9,-1.80487 3.6,-2.4817 0.7,0.28201 1.6,0.45122 2.6,0.45122 0.5,0 1.1,-0.0564 1.6,-0.16921 7.4,3.66614 11.7,7.50149 13.6,9.41916 -1.2,1.18444 -1.9,2.5945 -1.9,4.06095 0,1.18444 0.5,2.36889 1.3,3.38413 -2.8,3.60973 -9.7,7.89629 -13.2,9.92677 -0.4,-0.0564 -0.9,-0.1128 -1.4,-0.1128 -0.9,0 -1.7,0.1128 -2.3,0.33841 -0.7,-0.73323 -2.2,-1.63566 -4.1,-2.5945 -3.1,-1.57926 -6.2,-2.48169 -6.9,-2.08688 -0.7,0.45122 1.3,2.03048 4.5,3.60974 1.8,0.90243 3.6,1.57926 4.9,1.91767 -0.4,0.39482 -0.7,0.90243 -0.7,1.41005 0,1.46646 2.1,2.6509 4.7,2.6509 0.9,0 1.7,-0.1128 2.4,-0.39481 0.8,0.67682 2.1,1.46645 3.7,2.31248 3.1,1.57926 6.2,2.4817 6.9,2.08688 0.7,-0.45121 -1.3,-2.03047 -4.5,-3.60973 -1.6,-0.78963 -3.2,-1.41006 -4.4,-1.80487 0.3,-0.33841 0.5,-0.78963 0.5,-1.18444 0,-0.28202 -0.1,-0.56403 -0.2,-0.84604 6.6,-4.17375 13.4,-6.65545 16.7,-7.67068 2,0.62042 4.3,0.95883 6.8,0.95883 2.5,0 4.8,-0.33841 6.8,-0.95883 6.4,1.86127 13.8,5.92222 17.1,7.78349 -0.1,0.22561 -0.2,0.45121 -0.2,0.73323 0,0.45121 0.2,0.90243 0.6,1.24084 -1.2,0.39482 -2.8,1.12804 -4.3,2.03048 -2.9,1.69206 -4.7,3.38413 -4,3.77894 0.7,0.39481 3.7,-0.67683 6.6,-2.36889 1.5,-0.90243 2.7,-1.74846 3.4,-2.48169 0.7,0.22561 1.5,0.39481 2.4,0.39481 2.6,0 4.7,-1.18444 4.7,-2.6509 0,-0.45121 -0.2,-0.84603 -0.5,-1.24084 1.3,-0.39482 3,-1.18445 4.7,-2.14328 2.9,-1.69207 4.7,-3.38413 4,-3.77895 -0.7,-0.39481 -3.7,0.67683 -6.6,2.36889 -1.6,0.95884 -2.9,1.91768 -3.6,2.5945 -0.7,-0.28201 -1.6,-0.45122 -2.6,-0.45122 -0.5,0 -1,0.0564 -1.5,0.16921 -7.6,-3.94815 -11.9,-8.0655 -13.5,-9.92677 0.8,-1.07164 1.3,-2.19969 1.3,-3.44053 0,-1.29725 -0.5,-2.4817 -1.4,-3.55334 3.4,-3.77894 11.3,-8.1783 14.4,-9.81396 0.3,0.0564 0.7,0.0564 1.1,0.0564 1,0 1.9,-0.16921 2.7,-0.50762 0.8,0.67682 2.2,1.52286 4,2.36889 3.2,1.52286 6.3,2.42529 7,1.97407 0.4,-0.28201 -1.6,-1.86127 -4.8,-3.44053 z m -65.6,-2.36889 c -0.6,0 -1,-0.28201 -1,-0.56402 0,-0.33841 0.5,-0.56402 1,-0.56402 0.6,0 1.1,0.28201 1.1,0.56402 -0.1,0.28201 -0.5,0.56402 -1.1,0.56402 z m 0,31.8108 c -0.6,0 -1,-0.28201 -1,-0.56402 0,-0.33842 0.5,-0.62043 1,-0.62043 0.6,0 1.1,0.28201 1.1,0.62043 0,0.28201 -0.5,0.56402 -1.1,0.56402 z m 56.2,-1.12804 c 0.6,0 1.1,0.28201 1.1,0.56402 0,0.33841 -0.5,0.62042 -1.1,0.62042 -0.6,0 -1,-0.28201 -1,-0.62042 -0.1,-0.33842 0.4,-0.56402 1,-0.56402 z m 0.4,-30.68276 c -0.6,0 -1.1,-0.28201 -1.1,-0.56402 0,-0.33841 0.5,-0.62042 1.1,-0.62042 0.6,0 1,0.28201 1,0.62042 0,0.28201 -0.5,0.56402 -1,0.56402 z"
           id="path1253" />
      </g>
    </g>
  </g>
  <g
     inkscape:groupmode="layer"
     id="layer5"
     inkscape:label="satellite_light_above"
     style="display:inline">
    <g
       transform="matrix(0.95725434,0,0,0.95725434,17.402662,-470.89087)"
       inkscape:label="Layer 1"
       id="layer1-3">
      <g
         transform="rotate(-45,450.10072,602.99356)"
         id="g5294">
        <path
           id="path3812-6"
           style="color:#000000;text-indent:0;text-transform:none;fill:#000000"
           d="m 474.41,565.47 c -5.9026,-4.6261 -14.12,-5.325 -19.423,-0.0221 l -9.4418,9.4418 c -5.3029,5.3029 -4.4462,13.4 0.0221,19.423 l 47.903,64.571 c 4.4683,6.023 14.098,5.3029 19.401,0 l 24.594,-24.594 c 5.3029,-5.3029 5.9026,-14.775 0,-19.401 z m -8.4853,8.4853 63.056,49.419 c 0.83352,0.65326 0.74883,1.6818 0,2.4307 l -24.594,24.594 c -0.74883,0.74883 -1.7997,0.85051 -2.4307,0 l -47.903,-64.571 c -0.63097,-0.85052 -0.77093,-1.704 -0.0221,-2.4528 l 9.4418,-9.4418 c 0.74883,-0.74883 1.6193,-0.63116 2.4528,0.0221 z"
           inkscape:export-ydpi="41.860001"
           sodipodi:nodetypes="ssssssssssssssssss"
           inkscape:export-filename="/home/przemo/sat.png"
           inkscape:connector-curvature="0"
           inkscape:export-xdpi="41.860001" />
        <path
           id="rect2985-0-7"
           style="color:#000000;text-indent:0;text-transform:none;fill:#000000"
           d="m 411.68,502.74 c 4.6261,5.9026 5.325,14.12 0.0221,19.423 l -9.4418,9.4418 c -5.3029,5.3029 -13.4,4.4462 -19.423,-0.0221 l -64.571,-47.903 c -6.023,-4.4683 -5.3029,-14.098 0,-19.401 l 24.594,-24.594 c 5.3029,-5.3029 14.775,-5.9026 19.401,0 z m -8.4853,8.4853 -49.419,-63.056 c -0.65326,-0.83352 -1.6818,-0.74883 -2.4307,0 l -24.594,24.594 c -0.74883,0.74884 -0.85051,1.7997 0,2.4307 l 64.571,47.903 c 0.85052,0.63097 1.704,0.77093 2.4528,0.0221 l 9.4418,-9.4418 c 0.74883,-0.74883 0.63116,-1.6193 -0.0221,-2.4528 z"
           inkscape:export-ydpi="41.860001"
           sodipodi:nodetypes="ssssssssssssssssss"
           inkscape:export-filename="/home/przemo/sat.png"
           inkscape:connector-curvature="0"
           inkscape:export-xdpi="41.860001" />
        <rect
           id="rect2985-0-1-5"
           style="color:#000000;fill:none;stroke:#000000;stroke-width:12;stroke-linecap:round;stroke-linejoin:round"
           transform="rotate(135)"
           inkscape:export-ydpi="41.860001"
           inkscape:export-filename="/home/przemo/sat.png"
           ry="9.3838997"
           height="28.039"
           width="66.966003"
           inkscape:export-xdpi="41.860001"
           y="-704.96997"
           x="52.389999" />
      </g>
    </g>
  </g>
  <g
     inkscape:groupmode="layer"
     id="layer6"
     inkscape:label="quadcopter"
     style="display:inline">
    <g
       style="display:inline;fill:none;stroke:none;stroke-linecap:square;stroke-miterlimit:10"
       id="g2413"
       transform="matrix(3.0272345,0,0,3.7795275,78.990763,-211.23143)">
      <g
         id="layer1-1"
         inkscape:label="Layer 1" />
      <g
         style="display:inline"
         inkscape:label="Layer 2"
         id="layer2-8">
        <g
           transform="translate(0.42115259)"
           id="g1492">
          <rect
             id="rect2985-0-1-5-7"
             style="color:#000000;fill:none;stroke:#000000;stroke-width:1.83696842;stroke-linecap:round;stroke-linejoin:round;stroke-miterlimit:10"
             transform="rotate(90)"
             inkscape:export-ydpi="41.860001"
             inkscape:export-filename="/home/przemo/sat.png"
             ry="2.3766935"
             height="7.1015368"
             width="6.1959152"
             inkscape:export-xdpi="41.860001"
             y="-132.87727"
             x="145.40204" />
          <rect
             id="rect2985-0-1-5-3"
             style="color:#000000;fill:none;stroke:#000000;stroke-width:1.83696842;stroke-linecap:round;stroke-linejoin:round;stroke-miterlimit:10"
             transform="rotate(90)"
             inkscape:export-ydpi="41.860001"
             inkscape:export-filename="/home/przemo/sat.png"
             ry="2.3766935"
             height="7.1015368"
             width="6.1959152"
             inkscape:export-xdpi="41.860001"
             y="-83.381958"
             x="145.40204" />
        </g>
      </g>
      <g
         inkscape:label="Layer 3"
         id="layer3-9">
        <rect
           ry="1.2414117"
           y="146.58788"
           x="83.130531"
           height="3.8242342"
           width="43.738941"
           id="rect1485"
           style="display:inline;opacity:1;vector-effect:none;fill:#000000;fill-opacity:1;stroke:#000000;stroke-width:0.25;stroke-linecap:square;stroke-linejoin:miter;stroke-miterlimit:10;stroke-dasharray:none;stroke-dashoffset:0;stroke-opacity:1;paint-order:fill markers stroke" />
        <rect
           ry="1.1"
           y="135.83257"
           x="79.214241"
           height="10.243154"
           width="2.0762072"
           id="rect1544"
           style="opacity:1;vector-effect:none;fill:#000000;fill-opacity:1;stroke:#000000;stroke-width:0.1820122;stroke-linecap:square;stroke-linejoin:miter;stroke-miterlimit:10;stroke-dasharray:none;stroke-dashoffset:0;stroke-opacity:1;paint-order:fill markers stroke" />
        <rect
           ry="1.1"
           y="135.83257"
           x="128.70955"
           height="10.243155"
           width="2.0762072"
           id="rect1544-3"
           style="opacity:1;vector-effect:none;fill:#000000;fill-opacity:1;stroke:#000000;stroke-width:0.1820122;stroke-linecap:square;stroke-linejoin:miter;stroke-miterlimit:10;stroke-dasharray:none;stroke-dashoffset:0;stroke-opacity:1;paint-order:fill markers stroke" />
        <rect
           ry="1.1"
           transform="rotate(90)"
           y="-96.27121"
           x="138.37721"
           height="32.037727"
           width="1.9815317"
           id="rect1544-5"
           style="opacity:1;vector-effect:none;fill:#000000;fill-opacity:1;stroke:#000000;stroke-width:0.31447032;stroke-linecap:square;stroke-linejoin:miter;stroke-miterlimit:10;stroke-dasharray:none;stroke-dashoffset:0;stroke-opacity:1;paint-order:fill markers stroke" />
        <rect
           transform="rotate(90)"
           ry="1.1"
           y="-145.76651"
           x="138.37721"
           height="32.037727"
           width="1.9815317"
           id="rect1544-5-6"
           style="opacity:1;vector-effect:none;fill:#000000;fill-opacity:1;stroke:#000000;stroke-width:0.31447032;stroke-linecap:square;stroke-linejoin:miter;stroke-miterlimit:10;stroke-dasharray:none;stroke-dashoffset:0;stroke-opacity:1;paint-order:fill markers stroke" />
        <rect
           ry="1.1"
           y="150.87486"
           x="79.214241"
           height="5"
           width="2.0762072"
           id="rect1544-0"
           style="opacity:1;vector-effect:none;fill:#000000;fill-opacity:1;stroke:#000000;stroke-width:0.1820122;stroke-linecap:square;stroke-linejoin:miter;stroke-miterlimit:10;stroke-dasharray:none;stroke-dashoffset:0;stroke-opacity:1;paint-order:fill markers stroke" />
        <rect
           ry="1.1"
           y="150.91515"
           x="128.70955"
           height="5"
           width="2.0762072"
           id="rect1544-0-9"
           style="opacity:1;vector-effect:none;fill:#000000;fill-opacity:1;stroke:#000000;stroke-width:0.1820122;stroke-linecap:square;stroke-linejoin:miter;stroke-miterlimit:10;stroke-dasharray:none;stroke-dashoffset:0;stroke-opacity:1;paint-order:fill markers stroke" />
        <g
           transform="translate(-5.6280537,0.18547936)"
           id="g2030">
          <g
             id="g1542"
             transform="translate(-3.507894,-0.02415478)" />
          <rect
             style="display:inline;opacity:1;vector-effect:none;fill:#000000;fill-opacity:1;stroke:#000000;stroke-width:0.14579216;stroke-linecap:square;stroke-linejoin:miter;stroke-miterlimit:10;stroke-dasharray:none;stroke-dashoffset:0;stroke-opacity:1;paint-order:fill markers stroke"
             id="rect1485-7"
             width="32"
             height="3.8242345"
             x="50.759907"
             y="146.40239"
             ry="1.2414117" />
          <rect
             style="display:inline;opacity:1;vector-effect:none;fill:#000000;fill-opacity:1;stroke:#000000;stroke-width:0.14579216;stroke-linecap:square;stroke-linejoin:miter;stroke-miterlimit:10;stroke-dasharray:none;stroke-dashoffset:0;stroke-opacity:1;paint-order:fill markers stroke"
             id="rect1485-7-6"
             width="32"
             height="3.8242345"
             x="138.4962"
             y="146.40239"
             ry="1.2414117" />
        </g>
      </g>
    </g>
  </g>
  <g
     inkscape:groupmode="layer"
     id="layer1"
     inkscape:label="satellite_dark"
     style="display:none">
    <g
       transform="matrix(0.48553833,-0.48553833,0.48553833,0.48553833,-77.593393,257.93836)"
       inkscape:label="Layer 1"
       id="layer1-6">
      <path
         inkscape:export-xdpi="41.860001"
         inkscape:connector-curvature="0"
         inkscape:export-filename="/home/przemo/sat.png"
         sodipodi:nodetypes="ssssssssssssssssss"
         inkscape:export-ydpi="41.860001"
         d="m 474.41,565.47 c -5.9026,-4.6261 -14.12,-5.325 -19.423,-0.0221 l -9.4418,9.4418 c -5.3029,5.3029 -4.4462,13.4 0.0221,19.423 l 47.903,64.571 c 4.4683,6.023 14.098,5.3029 19.401,0 l 24.594,-24.594 c 5.3029,-5.3029 5.9026,-14.775 0,-19.401 z m -8.4853,8.4853 63.056,49.419 c 0.83352,0.65326 0.74883,1.6818 0,2.4307 l -24.594,24.594 c -0.74883,0.74883 -1.7997,0.85051 -2.4307,0 l -47.903,-64.571 c -0.63097,-0.85052 -0.77093,-1.704 -0.0221,-2.4528 l 9.4418,-9.4418 c 0.74883,-0.74883 1.6193,-0.63116 2.4528,0.0221 z"
         style="color:#000000;text-indent:0;text-transform:none;fill:#ffffff;fill-opacity:1"
         id="path3812" />
      <path
         inkscape:export-xdpi="41.860001"
         inkscape:connector-curvature="0"
         inkscape:export-filename="/home/przemo/sat.png"
         sodipodi:nodetypes="ssssssssssssssssss"
         inkscape:export-ydpi="41.860001"
         d="m 411.68,502.74 c 4.6261,5.9026 5.325,14.12 0.0221,19.423 l -9.4418,9.4418 c -5.3029,5.3029 -13.4,4.4462 -19.423,-0.0221 l -64.571,-47.903 c -6.023,-4.4683 -5.3029,-14.098 0,-19.401 l 24.594,-24.594 c 5.3029,-5.3029 14.775,-5.9026 19.401,0 z m -8.4853,8.4853 -49.419,-63.056 c -0.65326,-0.83352 -1.6818,-0.74883 -2.4307,0 l -24.594,24.594 c -0.74883,0.74884 -0.85051,1.7997 0,2.4307 l 64.571,47.903 c 0.85052,0.63097 1.704,0.77093 2.4528,0.0221 l 9.4418,-9.4418 c 0.74883,-0.74883 0.63116,-1.6193 -0.0221,-2.4528 z"
         style="color:#000000;text-indent:0;text-transform:none;fill:#ffffff;fill-opacity:0.94117647"
         id="rect2985-0" />
      <rect
         x="52.389999"
         y="-704.96997"
         inkscape:export-xdpi="41.860001"
         width="66.966003"
         height="28.039"
         ry="9.3838997"
         inkscape:export-filename="/home/przemo/sat.png"
         inkscape:export-ydpi="41.860001"
         transform="rotate(135)"
         style="color:#000000;fill:none;stroke:#ffffff;stroke-width:12;stroke-linecap:round;stroke-linejoin:round;stroke-opacity:1"
         id="rect2985-0-1" />
      <path
         inkscape:export-xdpi="41.860001"
         inkscape:connector-curvature="0"
         inkscape:export-filename="/home/przemo/sat.png"
         sodipodi:nodetypes="csc"
         inkscape:export-ydpi="41.860001"
         d="m 354.32,573.75 c -13.551,13.551 -13.529,35.527 0.0221,49.078 13.5511,13.551 35.504,13.551 49.056,0"
         style="color:#000000;fill:none;stroke:#ffffff;stroke-width:24;stroke-linecap:round;stroke-linejoin:round;stroke-opacity:1"
         id="path3816" />
      <path
         inkscape:export-xdpi="41.860001"
         inkscape:connector-curvature="0"
         inkscape:export-filename="/home/przemo/sat.png"
         sodipodi:nodetypes="csc"
         inkscape:export-ydpi="41.860001"
         d="m 325.37,544.8 c -29.542,29.542 -29.542,77.452 0,106.99 29.542,29.542 77.43,29.52 106.97,-0.0221"
         style="color:#000000;fill:none;stroke:#ffffff;stroke-width:24;stroke-linecap:round;stroke-linejoin:round;stroke-opacity:1"
         id="path3818" />
      <path
         inkscape:export-xdpi="41.860001"
         inkscape:connector-curvature="0"
         inkscape:export-filename="/home/przemo/sat.png"
         sodipodi:nodetypes="csc"
         inkscape:export-ydpi="41.860001"
         d="m 296.82,517.67 c -44.92,44.92 -44.92,117.77 -10e-6,162.69 44.91999,44.92 117.74,44.887 162.66,-0.0336"
         style="color:#000000;fill:none;stroke:#ffffff;stroke-width:24;stroke-linecap:round;stroke-linejoin:round;stroke-opacity:1"
         id="path3818-1" />
    </g>
  </g>
  <g
     inkscape:label="satellite_light"
     id="g1086"
     inkscape:groupmode="layer"
     style="display:none">
    <g
       id="g1084"
       inkscape:label="Layer 1"
       transform="matrix(0.48553833,-0.48553833,0.48553833,0.48553833,-77.593393,257.93836)">
      <path
         id="path1072"
         style="color:#000000;text-indent:0;text-transform:none;fill:#000000;fill-opacity:1"
         d="m 474.41,565.47 c -5.9026,-4.6261 -14.12,-5.325 -19.423,-0.0221 l -9.4418,9.4418 c -5.3029,5.3029 -4.4462,13.4 0.0221,19.423 l 47.903,64.571 c 4.4683,6.023 14.098,5.3029 19.401,0 l 24.594,-24.594 c 5.3029,-5.3029 5.9026,-14.775 0,-19.401 z m -8.4853,8.4853 63.056,49.419 c 0.83352,0.65326 0.74883,1.6818 0,2.4307 l -24.594,24.594 c -0.74883,0.74883 -1.7997,0.85051 -2.4307,0 l -47.903,-64.571 c -0.63097,-0.85052 -0.77093,-1.704 -0.0221,-2.4528 l 9.4418,-9.4418 c 0.74883,-0.74883 1.6193,-0.63116 2.4528,0.0221 z"
         inkscape:export-ydpi="41.860001"
         sodipodi:nodetypes="ssssssssssssssssss"
         inkscape:export-filename="/home/przemo/sat.png"
         inkscape:connector-curvature="0"
         inkscape:export-xdpi="41.860001" />
      <path
         id="path1074"
         style="color:#000000;text-indent:0;text-transform:none;fill:#000000;fill-opacity:1"
         d="m 411.68,502.74 c 4.6261,5.9026 5.325,14.12 0.0221,19.423 l -9.4418,9.4418 c -5.3029,5.3029 -13.4,4.4462 -19.423,-0.0221 l -64.571,-47.903 c -6.023,-4.4683 -5.3029,-14.098 0,-19.401 l 24.594,-24.594 c 5.3029,-5.3029 14.775,-5.9026 19.401,0 z m -8.4853,8.4853 -49.419,-63.056 c -0.65326,-0.83352 -1.6818,-0.74883 -2.4307,0 l -24.594,24.594 c -0.74883,0.74884 -0.85051,1.7997 0,2.4307 l 64.571,47.903 c 0.85052,0.63097 1.704,0.77093 2.4528,0.0221 l 9.4418,-9.4418 c 0.74883,-0.74883 0.63116,-1.6193 -0.0221,-2.4528 z"
         inkscape:export-ydpi="41.860001"
         sodipodi:nodetypes="ssssssssssssssssss"
         inkscape:export-filename="/home/przemo/sat.png"
         inkscape:connector-curvature="0"
         inkscape:export-xdpi="41.860001" />
      <rect
         id="rect1076"
         style="color:#000000;fill:none;stroke:#000000;stroke-width:12;stroke-linecap:round;stroke-linejoin:round;stroke-opacity:1"
         transform="rotate(135)"
         inkscape:export-ydpi="41.860001"
         inkscape:export-filename="/home/przemo/sat.png"
         ry="9.3838997"
         height="28.039"
         width="66.966003"
         inkscape:export-xdpi="41.860001"
         y="-704.96997"
         x="52.389999" />
      <path
         id="path1078"
         style="color:#000000;fill:none;stroke:#000000;stroke-width:24;stroke-linecap:round;stroke-linejoin:round;stroke-opacity:1"
         d="m 354.32,573.75 c -13.551,13.551 -13.529,35.527 0.0221,49.078 13.5511,13.551 35.504,13.551 49.056,0"
         inkscape:export-ydpi="41.860001"
         sodipodi:nodetypes="csc"
         inkscape:export-filename="/home/przemo/sat.png"
         inkscape:connector-curvature="0"
         inkscape:export-xdpi="41.860001" />
      <path
         id="path1080"
         style="color:#000000;fill:none;stroke:#000000;stroke-width:24;stroke-linecap:round;stroke-linejoin:round;stroke-opacity:1"
         d="m 325.37,544.8 c -29.542,29.542 -29.542,77.452 0,106.99 29.542,29.542 77.43,29.52 106.97,-0.0221"
         inkscape:export-ydpi="41.860001"
         sodipodi:nodetypes="csc"
         inkscape:export-filename="/home/przemo/sat.png"
         inkscape:connector-curvature="0"
         inkscape:export-xdpi="41.860001" />
      <path
         id="path1082"
         style="color:#000000;fill:none;stroke:#000000;stroke-width:24;stroke-linecap:round;stroke-linejoin:round;stroke-opacity:1"
         d="m 296.82,517.67 c -44.92,44.92 -44.92,117.77 -10e-6,162.69 44.91999,44.92 117.74,44.887 162.66,-0.0336"
         inkscape:export-ydpi="41.860001"
         sodipodi:nodetypes="csc"
         inkscape:export-filename="/home/przemo/sat.png"
         inkscape:connector-curvature="0"
         inkscape:export-xdpi="41.860001" />
    </g>
  </g>
  <g
     inkscape:groupmode="layer"
     id="g1509"
     inkscape:label="clipper copy"
     style="display:none">
    <rect
       style="opacity:1;vector-effect:none;fill:#0000ff;fill-opacity:1;stroke:none;stroke-width:5.34505892;stroke-linecap:butt;stroke-linejoin:miter;stroke-miterlimit:4;stroke-dasharray:none;stroke-dashoffset:0;stroke-opacity:1;paint-order:fill markers stroke"
       id="rect1505"
       height="53.450592"
       x="494.4166"
       y="387.51816"
       width="53.450592"
       transform="rotate(45)"
       inkscape:transform-center-x="-29.962167"
       inkscape:transform-center-y="-27.565177"
       mask="none" />
    <rect
       style="display:inline;opacity:1;vector-effect:none;fill:#0000ff;fill-opacity:1;stroke:none;stroke-width:5.34505892;stroke-linecap:butt;stroke-linejoin:miter;stroke-miterlimit:4;stroke-dasharray:none;stroke-dashoffset:0;stroke-opacity:1;paint-order:fill markers stroke"
       id="rect1507"
       height="53.450592"
       x="1015.5613"
       y="-9.9483848e-05"
       width="53.450592"
       transform="rotate(45)"
       inkscape:transform-center-x="-29.962169"
       inkscape:transform-center-y="-27.565144"
       mask="none" />
  </g>
  <style
     id="style1223"
     type="text/css">
	.st0{display:none;}
	.st1{display:inline;}
</style>
</svg>
